M48
; DRILL file {KiCad (6.0.2)} date Sun 17 Apr 2022 05:36:17 PM -03
; FORMAT={-:-/ absolute / inch / decimal}
; #@! TF.CreationDate,2022-04-17T17:36:17-03:00
; #@! TF.GenerationSoftware,Kicad,Pcbnew,(6.0.2)
; #@! TF.FileFunction,Plated,1,2,PTH
FMAT,2
INCH
; #@! TA.AperFunction,Plated,PTH,ViaDrill
T1C0.0157
; #@! TA.AperFunction,Plated,PTH,ComponentDrill
T2C0.0354
; #@! TA.AperFunction,Plated,PTH,ComponentDrill
T3C0.0394
; #@! TA.AperFunction,Plated,PTH,ComponentDrill
T4C0.0500
%
G90
G05
T1
X6.9291Y-2.748
X6.9409Y-3.4134
X6.9587Y-2.5925
X6.9724Y-3.248
X7.2807Y-3.8425
X7.498Y-2.8642
X7.8713Y-3.3406
X7.8732Y-2.2346
T3
X7.0486Y-2.0874
X7.0486Y-2.1874
X7.0486Y-2.2874
X7.0486Y-2.3874
X7.0486Y-2.4874
X7.0486Y-2.5874
X7.0486Y-2.6874
X7.0486Y-2.7874
X7.0486Y-2.8874
X7.0486Y-2.9874
X7.0486Y-3.0874
X7.0486Y-3.1874
X7.0486Y-3.2874
X7.0486Y-3.3874
X7.0486Y-3.4874
X7.0486Y-3.5874
X7.0486Y-3.6874
X7.0486Y-3.7874
X7.0486Y-3.8874
X7.0486Y-3.9874
X7.1533Y-2.0866
X7.1533Y-2.1866
X7.1533Y-2.2866
X7.1533Y-2.3866
X7.1533Y-2.4866
X7.1533Y-2.5866
X7.1533Y-2.6866
X7.1533Y-2.7866
X7.1533Y-2.8866
X7.1533Y-2.9866
X7.1533Y-3.0866
X7.1533Y-3.1866
X7.1533Y-3.2866
X7.1533Y-3.3866
X7.1533Y-3.4866
X7.1533Y-3.5866
X7.1533Y-3.6866
X7.1533Y-3.7866
X7.1533Y-3.8866
X7.1533Y-3.9866
X7.6486Y-2.0874
X7.6486Y-2.1874
X7.6486Y-2.2874
X7.6486Y-2.3874
X7.6486Y-2.4874
X7.6486Y-2.5874
X7.6486Y-2.6874
X7.6486Y-2.7874
X7.6486Y-2.8874
X7.6486Y-2.9874
X7.6486Y-3.0874
X7.6486Y-3.1874
X7.6486Y-3.2874
X7.6486Y-3.3874
X7.6486Y-3.4874
X7.6486Y-3.5874
X7.6486Y-3.6874
X7.6486Y-3.7874
X7.6486Y-3.8874
X7.6486Y-3.9874
X7.7533Y-2.0866
X7.7533Y-2.1866
X7.7533Y-2.2866
X7.7533Y-2.3866
X7.7533Y-2.4866
X7.7533Y-2.5866
X7.7533Y-2.6866
X7.7533Y-2.7866
X7.7533Y-2.8866
X7.7533Y-2.9866
X7.7533Y-3.0866
X7.7533Y-3.1866
X7.7533Y-3.2866
X7.7533Y-3.3866
X7.7533Y-3.4866
X7.7533Y-3.5866
X7.7533Y-3.6866
X7.7533Y-3.7866
X7.7533Y-3.8866
X7.7533Y-3.9866
T4
X3.4252Y-2.9055
X3.4252Y-3.5748
X3.4252Y-4.2441
X3.622Y-2.9882
X3.622Y-3.6575
X3.622Y-4.3268
X3.8189Y-2.9055
X3.8189Y-3.5748
X3.8189Y-4.2441
X4.1339Y-2.4331
X4.1339Y-3.1024
X4.1339Y-3.7717
X4.3307Y-2.5157
X4.3307Y-3.185
X4.3307Y-3.8543
X4.5276Y-2.4331
X4.5276Y-3.1024
X4.5276Y-3.7717
X4.8425Y-2.2362
X4.8425Y-2.9055
X4.8425Y-3.5748
X5.0394Y-2.3189
X5.0394Y-2.9882
X5.0394Y-3.6575
X5.2362Y-2.2362
X5.2362Y-2.9055
X5.2362Y-3.5748
X5.3681Y-4.615
X5.5512Y-2.4331
X5.5512Y-3.1024
X5.5512Y-3.7717
X5.5714Y-4.6802
X5.748Y-2.5157
X5.748Y-3.185
X5.748Y-3.8543
X5.7603Y-4.5807
X5.9449Y-2.4331
X5.9449Y-3.1024
X5.9449Y-3.7717
X6.1975Y-4.6013
X6.2598Y-2.5118
X6.2598Y-3.1811
X6.2598Y-3.8504
X6.377Y-4.7169
X6.4567Y-2.5945
X6.4567Y-3.2638
X6.4567Y-3.9331
X6.5852Y-4.6697
X6.6535Y-2.5118
X6.6535Y-3.1811
X6.6535Y-3.8504
X7.0025Y-4.8162
X7.1459Y-4.9743
X7.3593Y-4.9826
T2
G00X7.5492Y-4.2441
M15
G01X7.5335Y-4.2441
M16
G05
G00X7.5492Y-4.3425
M15
G01X7.5335Y-4.3425
M16
G05
G00X7.5925Y-4.1614
M15
G01X7.5768Y-4.1614
M16
G05
G00X7.5925Y-4.4252
M15
G01X7.5768Y-4.4252
M16
G05
G00X7.75Y-4.1614
M15
G01X7.7343Y-4.1614
M16
G05
G00X7.75Y-4.4252
M15
G01X7.7343Y-4.4252
M16
G05
G00X7.8681Y-4.1614
M15
G01X7.8524Y-4.1614
M16
G05
G00X7.8681Y-4.4252
M15
G01X7.8524Y-4.4252
M16
G05
T0
M30
